PathFileType	4	(X/Y/Z)	/Users/itak/Documents/Research/Walk-IL/dataset/trc/00237_00009.trc
DataRate	CameraRate	NumFrames	NumMarkers	Units	OrigDataRate	OrigDataStartFrame	OrigNumFrames
100.000000	100.000000	4	53	mm	100.000000	829	948
Frame#	Time	RPSI			LPSI			L3			STRN			T10			C7			CLAV			RBAK			LBAK			LSHO			LUPA			LAEL			LAOL			LWTS			LWPS			LFRA			LIFD			LHPS			LHTS			RSHO			RUPA			RAEL			RAOL			RWTS			RWPS			RFRA			RIFD			RHTS			RHPS			RBHD			LFHD			RFHD			LBHD			LHIP			RHIP			RASI			LASI			LKNE			LTHI			LANK			LTIP			LTOE			LMT1			LMT5			LHEE			RKNE			RTHI			RANK			RTIP			RTOE			RMT1			RMT5			RHEE			
		X1	Y1	Z1	X2	Y2	Z2	X3	Y3	Z3	X4	Y4	Z4	X5	Y5	Z5	X6	Y6	Z6	X7	Y7	Z7	X8	Y8	Z8	X9	Y9	Z9	X10	Y10	Z10	X11	Y11	Z11	X12	Y12	Z12	X13	Y13	Z13	X14	Y14	Z14	X15	Y15	Z15	X16	Y16	Z16	X17	Y17	Z17	X18	Y18	Z18	X19	Y19	Z19	X20	Y20	Z20	X21	Y21	Z21	X22	Y22	Z22	X23	Y23	Z23	X24	Y24	Z24	X25	Y25	Z25	X26	Y26	Z26	X27	Y27	Z27	X28	Y28	Z28	X29	Y29	Z29	X30	Y30	Z30	X31	Y31	Z31	X32	Y32	Z32	X33	Y33	Z33	X34	Y34	Z34	X35	Y35	Z35	X36	Y36	Z36	X37	Y37	Z37	X38	Y38	Z38	X39	Y39	Z39	X40	Y40	Z40	X41	Y41	Z41	X42	Y42	Z42	X43	Y43	Z43	X44	Y44	Z44	X45	Y45	Z45	X46	Y46	Z46	X47	Y47	Z47	X48	Y48	Z48	X49	Y49	Z49	X50	Y50	Z50	X51	Y51	Z51	X52	Y52	Z52	X53	Y53	Z53	

830	8.290000000000001	571.5039672851562	1043.154296875	486.2914123535156	615.9158325195312	1051.695068359375	598.2485961914062	603.8533935546875	1127.476196289062	547.043212890625	378.0828247070312	1313.800170898438	640.277099609375	602.4713134765625	1252.408203125	529.2323608398438	547.9550170898438	1515.19580078125	547.9429931640625	401.26611328125	1430.579223632812	623.1524658203125	584.299560546875	1373.442749023438	453.1868286132812	615.7328491210938	1479.530639648438	639.0968017578125	560.9965209960938	1483.519775390625	729.3727416992188	622.1578979492188	1367.249145507812	790.77783203125	619.1213989257812	1159.690063476562	835.492919921875	659.6692504882812	1136.348510742188	761.8704223632812	496.6032409667969	935.127197265625	845.1168212890625	553.8867797851562	918.052001953125	903.5692138671875	599.3668823242188	1055.483642578125	866.0419921875	475.513427734375	743.3575439453125	871.4603881835938	527.23046875	832.9371337890625	916.4979248046875	464.7619018554688	842.27587890625	889.7727661132812	420.4607238769531	1468.302368164062	424.32861328125	407.9672241210938	1401.947265625	357.4772033691406	406.7308349609375	1119.98291015625	318.6004028320312	476.98974609375	1112.925659179688	383.3685302734375	287.9242248535156	922.7053833007812	434.7849731445312	306.2861022949219	899.4534301757812	354.8399658203125	373.52001953125	1052.677124023438	323.4306335449219	272.2490539550781	735.9019775390625	461.9423522949219	237.7115783691406	805.2401733398438	447.1991271972656	263.2556762695312	797.6728515625	380.0757141113281	480.6157531738281	1676.508544921875	525.2708129882812	320.7947387695312	1705.237548828125	684.4615478515625	285.7918701171875	1698.397583007812	589.312744140625	483.4821472167969	1687.024291992188	664.99658203125	571.39794921875	995.8023071289062	768.693359375	444.7024841308594	997.6149291992188	421.4949645996094	365.3050537109375	1041.535400390625	490.8005676269531	462.0525207519531	1037.53125	756.5836791992188	440.2431030273438	518.0859985351562	794.3937377929688	482.867919921875	659.5963134765625	805.1275634765625	556.4891357421875	40.12652969360352	780.2723999023438	506.3864135742188	296.1554870605469	795.365966796875	341.812255859375	69.82563018798828	777.2952880859375	395.2674865722656	57.1731071472168	719.987548828125	436.9123229980469	43.0715217590332	826.5581665039062	605.4491577148438	49.98440551757812	716.484375	427.4547729492188	508.9919128417969	508.6302185058594	390.2214050292969	774.670654296875	456.0597229003906	512.4029541015625	32.2517204284668	548.9183959960938	431.0885620117188	392.21728515625	538.72607421875	330.7021179199219	41.14404296875	666.8236083984375	399.831298828125	39.46419143676758	684.1864624023438	400.3520202636719	32.72534561157227	563.6641235351562	591.1869506835938	32.33185195922852	579.6005859375	
831	8.300000000000001	570.9352416992188	1042.933959960938	488.0081787109375	614.7153930664062	1051.361938476562	600.2432250976562	603.07958984375	1127.282836914062	549.0199584960938	376.8700256347656	1313.722900390625	640.8223266601562	601.9794921875	1252.277099609375	531.2789306640625	547.4952392578125	1515.078857421875	549.7548828125	400.2380981445312	1430.506958007812	623.9097900390625	584.4371337890625	1373.364135742188	455.1886901855469	614.6404418945312	1479.332397460938	641.3493041992188	559.3049926757812	1483.285522460938	731.26416015625	620.0033569335938	1366.897094726562	792.9475708007812	616.4990234375	1159.260009765625	837.3407592773438	657.6431884765625	1136.04248046875	763.9937744140625	494.2502746582031	934.7137451171875	845.899658203125	550.8909301757812	917.5093383789062	904.5631103515625	596.6078491210938	1054.989501953125	867.5811767578125	473.158447265625	742.7120971679688	871.47802734375	524.215087890625	832.341552734375	917.15673828125	461.9127502441406	841.4378051757812	889.7591552734375	420.8153076171875	1468.256103515625	425.2369384765625	408.8641052246094	1402.015625	358.2284851074219	408.1653442382812	1120.098022460938	318.9739074707031	478.0601806640625	1113.066650390625	384.1965942382812	289.2807312011719	922.0986938476562	433.8504943847656	308.1439819335938	899.2299194335938	353.9313659667969	375.0968017578125	1052.742553710938	323.468994140625	274.062255859375	735.0838012695312	460.214111328125	239.4061126708984	804.3773193359375	445.5506591796875	265.3498229980469	797.1474609375	378.6081848144531	480.6068725585938	1676.301513671875	526.5447387695312	320.0114440917969	1705.50927734375	684.9097900390625	285.57470703125	1698.763549804688	589.5806274414062	482.7570190429688	1686.828125	666.278076171875	569.0300903320312	995.44287109375	770.3677978515625	444.3564147949219	997.8677368164062	422.4753112792969	364.6388244628906	1041.684448242188	491.2361755371094	459.9067077636719	1037.390014648438	757.6472778320312	438.0513000488281	517.7905883789062	794.6095581054688	480.6670837402344	659.2162475585938	805.7588500976562	551.8565673828125	39.36759567260742	781.1683349609375	502.8042907714844	295.4618530273438	795.980224609375	337.1271057128906	69.36532592773438	776.4877319335938	391.10107421875	56.64098739624023	719.4537353515625	431.8922729492188	42.42378616333008	826.3935546875	601.2984008789062	49.07522583007812	717.7798461914062	426.8930358886719	509.0067749023438	509.0279541015625	389.886962890625	774.7485961914062	456.7591247558594	512.4061279296875	32.2573127746582	548.9193115234375	430.5724792480469	392.1715698242188	538.9846801757812	330.6705322265625	41.12774658203125	666.784912109375	399.8265686035156	39.4669303894043	684.1925048828125	400.3358459472656	32.6932373046875	563.6113891601562	591.1818237304688	32.35074234008789	579.6209716796875	
832	8.31	570.3784790039062	1042.661865234375	489.7101745605469	613.531494140625	1050.958251953125	602.2000122070312	602.3091430664062	1127.044067382812	550.9722290039062	375.7237854003906	1313.603881835938	641.3717651367188	601.5355224609375	1252.112060546875	533.3292846679688	547.069091796875	1514.927978515625	551.5722045898438	399.2595825195312	1430.386962890625	624.6798706054688	584.6075439453125	1373.252685546875	457.1997985839844	613.5936889648438	1479.104248046875	643.6029663085938	557.66357421875	1483.021484375	733.1546630859375	617.8897094726562	1366.51416015625	795.1071166992188	613.9116821289062	1158.79052734375	839.1586303710938	655.6551513671875	1135.707397460938	766.0969848632812	491.8896179199219	934.25537109375	846.5654296875	547.9171142578125	916.9303588867188	905.4931640625	593.8765869140625	1054.457641601562	869.078125	470.8478088378906	742.062744140625	871.4551391601562	521.2256469726562	831.715576171875	917.77001953125	459.1159057617188	840.6148071289062	889.72705078125	421.1911926269531	1468.162353515625	426.1771240234375	409.8074951171875	1402.045288085938	358.9808044433594	409.6365661621094	1120.174438476562	319.3769836425781	479.1310729980469	1113.165161132812	385.060791015625	290.7204895019531	921.477294921875	432.9741821289062	310.0313720703125	898.974853515625	353.0643615722656	376.7070617675781	1052.770751953125	323.5351867675781	275.87646484375	734.264892578125	458.5476989746094	241.052490234375	803.5239868164062	443.91259765625	267.4561157226562	796.617919921875	377.1755676269531	480.6247863769531	1676.054321289062	527.8236083984375	319.2725830078125	1705.730102539062	685.3720092773438	285.3792724609375	1699.062622070312	589.8707275390625	482.0551452636719	1686.60107421875	667.563720703125	566.7486572265625	994.9974975585938	772.0029296875	443.927978515625	998.0778198242188	423.4846801757812	363.9305114746094	1041.822143554688	491.6795043945312	457.8327941894531	1037.204345703125	758.726318359375	436.0418090820312	517.4223022460938	794.7349243164062	478.6021423339844	658.7455444335938	806.29833984375	547.7537841796875	38.67327880859375	781.9547119140625	499.5335083007812	294.7320861816406	796.4795532226562	332.9469909667969	68.54222106933594	775.5518188476562	387.4096374511719	55.84121322631836	718.7721557617188	427.4535827636719	41.56598663330078	825.9534912109375	597.6475219726562	48.28868103027344	718.9226684570312	426.2652587890625	509.0078735351562	509.4378356933594	389.4243469238281	774.7369384765625	457.4846801757812	512.4043579101562	32.26102447509766	548.9136352539062	429.9864807128906	392.1188354492188	539.2556762695312	330.6379699707031	41.11080169677734	666.7501831054688	399.820068359375	39.45393371582031	684.2301635742188	400.3230590820312	32.67356109619141	563.5576171875	591.1734619140625	32.36639022827148	579.6366577148438	
833	8.32	569.8255004882812	1042.340087890625	491.3988952636719	612.3643188476562	1050.485473632812	604.120849609375	601.5359497070312	1126.760009765625	552.9002685546875	374.6532592773438	1313.445678710938	641.9310302734375	601.1384887695312	1251.911987304688	535.3834228515625	546.6760864257812	1514.743896484375	553.3942260742188	398.3289794921875	1430.22412109375	625.4622192382812	584.810791015625	1373.107299804688	459.2212829589844	612.5899658203125	1478.847290039062	645.8562622070312	556.0719604492188	1482.727294921875	735.0439453125	615.8151245117188	1366.10107421875	797.2543334960938	611.36572265625	1158.281860351562	840.9480590820312	653.7037963867188	1135.341064453125	768.1795654296875	489.4935607910156	933.7531127929688	847.0960083007812	544.9627075195312	916.3169555664062	906.3639526367188	591.1746826171875	1053.888671875	870.5354614257812	468.5614624023438	741.4293212890625	871.4131469726562	518.2633056640625	831.0657958984375	918.3453979492188	456.3737182617188	839.8123168945312	889.6764526367188	421.5912475585938	1468.024169921875	427.1416931152344	410.8029174804688	1402.037719726562	359.7240295410156	411.1399230957031	1120.204345703125	319.8188171386719	480.1940612792969	1113.21728515625	385.9696960449219	292.204345703125	920.8345336914062	432.1456909179688	311.9371948242188	898.6828002929688	352.2409973144531	378.3454895019531	1052.7529296875	323.6351318359375	277.68408203125	733.4326171875	456.9505920410156	242.6395568847656	802.676513671875	442.2904663085938	269.5742492675781	796.0745239257812	375.7772216796875	480.66650390625	1675.770874023438	529.107177734375	318.5791931152344	1705.900146484375	685.8527221679688	285.1976013183594	1699.295166015625	590.1783447265625	481.3768310546875	1686.343872070312	668.8538818359375	564.55712890625	994.4710693359375	773.603271484375	443.4198913574219	998.2298583984375	424.5136108398438	363.1929931640625	1041.93603515625	492.1433410644531	455.8301086425781	1036.977416992188	759.823974609375	434.1998596191406	516.9942626953125	794.77685546875	476.6680603027344	658.195068359375	806.7540893554688	544.2178344726562	38.05210876464844	782.6500244140625	496.576416015625	293.9706115722656	796.8779296875	329.2878723144531	67.32924652099609	774.5220947265625	384.2271118164062	54.7473258972168	717.9985961914062	423.5982055664062	40.51309585571289	825.2990112304688	594.520751953125	47.64077377319336	719.9204711914062	425.5953369140625	508.9954528808594	509.8413391113281	388.84619140625	774.6216430664062	458.2007446289062	512.3991088867188	32.2619514465332	548.8992919921875	429.359130859375	392.0635986328125	539.529052734375	330.6069030761719	41.09338760375977	666.7181396484375	399.8042907714844	39.43724060058594	684.282958984375	400.3134460449219	32.66349029541016	563.5026245117188	591.1646728515625	32.37982940673828	579.6471557617188	
